<?xml version="1.0" encoding="UTF-8" standalone="no"?>
<!DOCTYPE svg PUBLIC "-//W3C//DTD SVG 1.1//EN"
 "http://www.w3.org/Graphics/SVG/1.1/DTD/svg11.dtd">
<!-- Generated by graphviz version 2.42.3 (20191010.1750)
 -->
<!-- Title: %3 Pages: 1 -->
<svg width="1487pt" height="162pt"
 viewBox="0.00 0.00 1487.00 162.00" xmlns="http://www.w3.org/2000/svg" xmlns:xlink="http://www.w3.org/1999/xlink">
<g id="graph0" class="graph" transform="scale(1 1) rotate(0) translate(72 126)">
<title>%3</title>
<polygon fill="#ffffff" stroke="transparent" points="-72,36 -72,-126 1415,-126 1415,36 -72,36"/>
<!-- /outputs/40 -->
<g id="node1" class="node">
<title>/outputs/40</title>
<polygon fill="#e8e8e8" stroke="#000000" points="297,-36 227,-36 227,0 297,0 297,-36"/>
<text text-anchor="start" x="235" y="-15" font-family="Times" font-size="10.00" fill="#000000">MaxPool3x3</text>
</g>
<!-- 4223097657403044974 -->
<g id="node9" class="node">
<title>4223097657403044974</title>
<polygon fill="#e8e8e8" stroke="#000000" points="524,-36 333,-36 333,0 524,0 524,-36"/>
<text text-anchor="start" x="341.5" y="-15" font-family="Times" font-size="10.00" fill="#000000">Conv3x3 &gt; Conv3x3 &gt; BatchNorm &gt; Relu</text>
</g>
<!-- /outputs/40&#45;&gt;4223097657403044974 -->
<g id="edge5" class="edge">
<title>/outputs/40&#45;&gt;4223097657403044974</title>
<path fill="none" stroke="#000000" d="M297.08,-18C304.89,-18 313.6,-18 322.7,-18"/>
<polygon fill="#000000" stroke="#000000" points="322.71,-21.5 332.71,-18 322.71,-14.5 322.71,-21.5"/>
</g>
<!-- /outputs/45 -->
<g id="node2" class="node">
<title>/outputs/45</title>
<polygon fill="#e8e8e8" stroke="#000000" points="630,-36 560,-36 560,0 630,0 630,-36"/>
<text text-anchor="start" x="568" y="-15" font-family="Times" font-size="10.00" fill="#000000">MaxPool3x3</text>
</g>
<!-- 14060405262368553712 -->
<g id="node10" class="node">
<title>14060405262368553712</title>
<polygon fill="#e8e8e8" stroke="#000000" points="857,-36 666,-36 666,0 857,0 857,-36"/>
<text text-anchor="start" x="674.5" y="-15" font-family="Times" font-size="10.00" fill="#000000">Conv3x3 &gt; Conv3x3 &gt; BatchNorm &gt; Relu</text>
</g>
<!-- /outputs/45&#45;&gt;14060405262368553712 -->
<g id="edge7" class="edge">
<title>/outputs/45&#45;&gt;14060405262368553712</title>
<path fill="none" stroke="#000000" d="M630.08,-18C637.89,-18 646.6,-18 655.7,-18"/>
<polygon fill="#000000" stroke="#000000" points="655.71,-21.5 665.71,-18 655.71,-14.5 655.71,-21.5"/>
</g>
<!-- /outputs/50 -->
<g id="node3" class="node">
<title>/outputs/50</title>
<polygon fill="#e8e8e8" stroke="#000000" points="963,-36 893,-36 893,0 963,0 963,-36"/>
<text text-anchor="start" x="901" y="-15" font-family="Times" font-size="10.00" fill="#000000">MaxPool3x3</text>
</g>
<!-- /outputs/51 -->
<g id="node4" class="node">
<title>/outputs/51</title>
<polygon fill="#e8e8e8" stroke="#000000" points="1054,-36 999,-36 999,0 1054,0 1054,-36"/>
<text text-anchor="start" x="1007.5" y="-15" font-family="Times" font-size="10.00" fill="#000000">Conv3x3</text>
</g>
<!-- /outputs/50&#45;&gt;/outputs/51 -->
<g id="edge1" class="edge">
<title>/outputs/50&#45;&gt;/outputs/51</title>
<path fill="none" stroke="#000000" d="M963.02,-18C971.26,-18 980.11,-18 988.48,-18"/>
<polygon fill="#000000" stroke="#000000" points="988.75,-21.5 998.75,-18 988.75,-14.5 988.75,-21.5"/>
</g>
<!-- /outputs/53 -->
<g id="node6" class="node">
<title>/outputs/53</title>
<polygon fill="#e8e8e8" stroke="#000000" points="1144,-63 1090,-63 1090,-27 1144,-27 1144,-63"/>
<text text-anchor="start" x="1100" y="-42" font-family="Times" font-size="10.00" fill="#000000">Reshape</text>
</g>
<!-- /outputs/51&#45;&gt;/outputs/53 -->
<g id="edge2" class="edge">
<title>/outputs/51&#45;&gt;/outputs/53</title>
<path fill="none" stroke="#000000" d="M1054.05,-26.1C1062.27,-28.61 1071.45,-31.41 1080.18,-34.07"/>
<polygon fill="#000000" stroke="#000000" points="1079.18,-37.43 1089.77,-37 1081.23,-30.73 1079.18,-37.43"/>
</g>
<!-- /outputs/52 -->
<g id="node5" class="node">
<title>/outputs/52</title>
<polygon fill="#e8e8e8" stroke="#000000" points="1053.5,-90 999.5,-90 999.5,-54 1053.5,-54 1053.5,-90"/>
<text text-anchor="start" x="1008.5" y="-69" font-family="Times" font-size="10.00" fill="#000000">Constant</text>
</g>
<!-- /outputs/52&#45;&gt;/outputs/53 -->
<g id="edge3" class="edge">
<title>/outputs/52&#45;&gt;/outputs/53</title>
<path fill="none" stroke="#000000" d="M1053.57,-64.05C1061.87,-61.51 1071.2,-58.67 1080.07,-55.96"/>
<polygon fill="#000000" stroke="#000000" points="1081.26,-59.26 1089.81,-52.99 1079.22,-52.56 1081.26,-59.26"/>
</g>
<!-- 12796778369047760987 -->
<g id="node11" class="node">
<title>12796778369047760987</title>
<polygon fill="#e8e8e8" stroke="#000000" points="1253,-67 1180,-67 1180,-23 1253,-23 1253,-67"/>
<text text-anchor="start" x="1188.5" y="-51" font-family="Times" font-size="10.00" fill="#000000">Linear &gt; Relu</text>
<text text-anchor="start" x="1238.5" y="-30" font-family="Times" font-size="10.00" fill="#000000">x2</text>
</g>
<!-- /outputs/53&#45;&gt;12796778369047760987 -->
<g id="edge9" class="edge">
<title>/outputs/53&#45;&gt;12796778369047760987</title>
<path fill="none" stroke="#000000" d="M1144.13,-45C1151.99,-45 1160.87,-45 1169.62,-45"/>
<polygon fill="#000000" stroke="#000000" points="1169.77,-48.5 1179.77,-45 1169.77,-41.5 1169.77,-48.5"/>
</g>
<!-- /outputs/58 -->
<g id="node7" class="node">
<title>/outputs/58</title>
<polygon fill="#e8e8e8" stroke="#000000" points="1343,-63 1289,-63 1289,-27 1343,-27 1343,-63"/>
<text text-anchor="start" x="1303" y="-42" font-family="Times" font-size="10.00" fill="#000000">Linear</text>
</g>
<!-- 12757316889233369756 -->
<g id="node8" class="node">
<title>12757316889233369756</title>
<polygon fill="#e8e8e8" stroke="#000000" points="191,-36 0,-36 0,0 191,0 191,-36"/>
<text text-anchor="start" x="8.5" y="-15" font-family="Times" font-size="10.00" fill="#000000">Conv7x5 &gt; Conv5x3 &gt; BatchNorm &gt; Relu</text>
</g>
<!-- 12757316889233369756&#45;&gt;/outputs/40 -->
<g id="edge4" class="edge">
<title>12757316889233369756&#45;&gt;/outputs/40</title>
<path fill="none" stroke="#000000" d="M191.24,-18C200.08,-18 208.72,-18 216.74,-18"/>
<polygon fill="#000000" stroke="#000000" points="216.9,-21.5 226.9,-18 216.9,-14.5 216.9,-21.5"/>
</g>
<!-- 4223097657403044974&#45;&gt;/outputs/45 -->
<g id="edge6" class="edge">
<title>4223097657403044974&#45;&gt;/outputs/45</title>
<path fill="none" stroke="#000000" d="M524.24,-18C533.08,-18 541.72,-18 549.74,-18"/>
<polygon fill="#000000" stroke="#000000" points="549.9,-21.5 559.9,-18 549.9,-14.5 549.9,-21.5"/>
</g>
<!-- 14060405262368553712&#45;&gt;/outputs/50 -->
<g id="edge8" class="edge">
<title>14060405262368553712&#45;&gt;/outputs/50</title>
<path fill="none" stroke="#000000" d="M857.24,-18C866.08,-18 874.72,-18 882.74,-18"/>
<polygon fill="#000000" stroke="#000000" points="882.9,-21.5 892.9,-18 882.9,-14.5 882.9,-21.5"/>
</g>
<!-- 12796778369047760987&#45;&gt;/outputs/58 -->
<g id="edge10" class="edge">
<title>12796778369047760987&#45;&gt;/outputs/58</title>
<path fill="none" stroke="#000000" d="M1253.25,-45C1261.51,-45 1270.3,-45 1278.58,-45"/>
<polygon fill="#000000" stroke="#000000" points="1278.72,-48.5 1288.72,-45 1278.72,-41.5 1278.72,-48.5"/>
</g>
</g>
</svg>
