<?xml version="1.0" encoding="UTF-8" standalone="no"?>
<!DOCTYPE svg PUBLIC "-//W3C//DTD SVG 1.1//EN"
 "http://www.w3.org/Graphics/SVG/1.1/DTD/svg11.dtd">
<!-- Generated by graphviz version 2.42.3 (20191010.1750)
 -->
<!-- Title: %3 Pages: 1 -->
<svg width="4868pt" height="162pt"
 viewBox="0.00 0.00 4868.00 162.00" xmlns="http://www.w3.org/2000/svg" xmlns:xlink="http://www.w3.org/1999/xlink">
<g id="graph0" class="graph" transform="scale(1 1) rotate(0) translate(72 126)">
<title>%3</title>
<polygon fill="#ffffff" stroke="transparent" points="-72,36 -72,-126 4796,-126 4796,36 -72,36"/>
<!-- /outputs/126 -->
<g id="node1" class="node">
<title>/outputs/126</title>
<polygon fill="#e8e8e8" stroke="#000000" points="249,-63 179,-63 179,-27 249,-27 249,-63"/>
<text text-anchor="start" x="187" y="-42" font-family="Times" font-size="10.00" fill="#000000">MaxPool3x3</text>
</g>
<!-- /outputs/132 -->
<g id="node2" class="node">
<title>/outputs/132</title>
<polygon fill="#e8e8e8" stroke="#000000" points="667,-63 613,-63 613,-27 667,-27 667,-63"/>
<text text-anchor="start" x="631" y="-42" font-family="Times" font-size="10.00" fill="#000000">Add</text>
</g>
<!-- /outputs/126&#45;&gt;/outputs/132 -->
<g id="edge1" class="edge">
<title>/outputs/126&#45;&gt;/outputs/132</title>
<path fill="none" stroke="#000000" d="M249.16,-47.34C260.56,-48.02 273.32,-48.67 285,-49 414.72,-52.7 447.29,-53.18 577,-49 585.35,-48.73 594.33,-48.26 602.79,-47.73"/>
<polygon fill="#000000" stroke="#000000" points="603.03,-51.22 612.77,-47.07 602.56,-44.24 603.03,-51.22"/>
</g>
<!-- 13323451925697643810 -->
<g id="node22" class="node">
<title>13323451925697643810</title>
<polygon fill="#e8e8e8" stroke="#000000" points="428,-40 285,-40 285,-4 428,-4 428,-40"/>
<text text-anchor="start" x="293.5" y="-19" font-family="Times" font-size="10.00" fill="#000000">Conv3x3 &gt; BatchNorm &gt; Relu</text>
</g>
<!-- /outputs/126&#45;&gt;13323451925697643810 -->
<g id="edge18" class="edge">
<title>/outputs/126&#45;&gt;13323451925697643810</title>
<path fill="none" stroke="#000000" d="M249.01,-39.43C257,-38.12 265.86,-36.67 274.95,-35.19"/>
<polygon fill="#000000" stroke="#000000" points="275.57,-38.63 284.87,-33.56 274.44,-31.72 275.57,-38.63"/>
</g>
<!-- /outputs/133 -->
<g id="node3" class="node">
<title>/outputs/133</title>
<polygon fill="#e8e8e8" stroke="#000000" points="757,-63 703,-63 703,-27 757,-27 757,-63"/>
<text text-anchor="start" x="720" y="-42" font-family="Times" font-size="10.00" fill="#000000">Relu</text>
</g>
<!-- /outputs/132&#45;&gt;/outputs/133 -->
<g id="edge2" class="edge">
<title>/outputs/132&#45;&gt;/outputs/133</title>
<path fill="none" stroke="#000000" d="M667.4,-45C675.39,-45 684.31,-45 692.82,-45"/>
<polygon fill="#000000" stroke="#000000" points="692.92,-48.5 702.92,-45 692.92,-41.5 692.92,-48.5"/>
</g>
<!-- /outputs/139 -->
<g id="node4" class="node">
<title>/outputs/139</title>
<polygon fill="#e8e8e8" stroke="#000000" points="1175,-63 1121,-63 1121,-27 1175,-27 1175,-63"/>
<text text-anchor="start" x="1139" y="-42" font-family="Times" font-size="10.00" fill="#000000">Add</text>
</g>
<!-- /outputs/133&#45;&gt;/outputs/139 -->
<g id="edge3" class="edge">
<title>/outputs/133&#45;&gt;/outputs/139</title>
<path fill="none" stroke="#000000" d="M757.23,-47.07C768.26,-47.84 781.25,-48.62 793,-49 922.71,-53.18 955.29,-53.18 1085,-49 1093.35,-48.73 1102.33,-48.26 1110.79,-47.73"/>
<polygon fill="#000000" stroke="#000000" points="1111.03,-51.22 1120.77,-47.07 1110.56,-44.24 1111.03,-51.22"/>
</g>
<!-- 3183278180704118849 -->
<g id="node23" class="node">
<title>3183278180704118849</title>
<polygon fill="#e8e8e8" stroke="#000000" points="936,-40 793,-40 793,-4 936,-4 936,-40"/>
<text text-anchor="start" x="801.5" y="-19" font-family="Times" font-size="10.00" fill="#000000">Conv3x3 &gt; BatchNorm &gt; Relu</text>
</g>
<!-- /outputs/133&#45;&gt;3183278180704118849 -->
<g id="edge19" class="edge">
<title>/outputs/133&#45;&gt;3183278180704118849</title>
<path fill="none" stroke="#000000" d="M757.18,-40.46C764.82,-39.13 773.6,-37.6 782.78,-36.01"/>
<polygon fill="#000000" stroke="#000000" points="783.59,-39.42 792.85,-34.26 782.4,-32.53 783.59,-39.42"/>
</g>
<!-- /outputs/140 -->
<g id="node5" class="node">
<title>/outputs/140</title>
<polygon fill="#e8e8e8" stroke="#000000" points="1265,-63 1211,-63 1211,-27 1265,-27 1265,-63"/>
<text text-anchor="start" x="1228" y="-42" font-family="Times" font-size="10.00" fill="#000000">Relu</text>
</g>
<!-- /outputs/139&#45;&gt;/outputs/140 -->
<g id="edge4" class="edge">
<title>/outputs/139&#45;&gt;/outputs/140</title>
<path fill="none" stroke="#000000" d="M1175.4,-45C1183.39,-45 1192.31,-45 1200.82,-45"/>
<polygon fill="#000000" stroke="#000000" points="1200.92,-48.5 1210.92,-45 1200.92,-41.5 1200.92,-48.5"/>
</g>
<!-- 47164374850255346 -->
<g id="node24" class="node">
<title>47164374850255346</title>
<polygon fill="#e8e8e8" stroke="#000000" points="1444,-88 1301,-88 1301,-52 1444,-52 1444,-88"/>
<text text-anchor="start" x="1309.5" y="-67" font-family="Times" font-size="10.00" fill="#000000">Conv3x3 &gt; BatchNorm &gt; Relu</text>
</g>
<!-- /outputs/140&#45;&gt;47164374850255346 -->
<g id="edge20" class="edge">
<title>/outputs/140&#45;&gt;47164374850255346</title>
<path fill="none" stroke="#000000" d="M1265.18,-49.94C1272.82,-51.38 1281.6,-53.04 1290.78,-54.77"/>
<polygon fill="#000000" stroke="#000000" points="1290.37,-58.25 1300.85,-56.67 1291.67,-51.38 1290.37,-58.25"/>
</g>
<!-- 15958836582840124980 -->
<g id="node33" class="node">
<title>15958836582840124980</title>
<polygon fill="#e8e8e8" stroke="#000000" points="1593,-36 1480,-36 1480,0 1593,0 1593,-36"/>
<text text-anchor="start" x="1488.5" y="-15" font-family="Times" font-size="10.00" fill="#000000">Conv1x1 &gt; BatchNorm</text>
</g>
<!-- /outputs/140&#45;&gt;15958836582840124980 -->
<g id="edge32" class="edge">
<title>/outputs/140&#45;&gt;15958836582840124980</title>
<path fill="none" stroke="#000000" d="M1265.05,-42.63C1310.46,-38.49 1405.38,-29.85 1469.8,-23.98"/>
<polygon fill="#000000" stroke="#000000" points="1470.22,-27.46 1479.86,-23.07 1469.58,-20.49 1470.22,-27.46"/>
</g>
<!-- /outputs/148 -->
<g id="node6" class="node">
<title>/outputs/148</title>
<polygon fill="#e8e8e8" stroke="#000000" points="1683,-63 1629,-63 1629,-27 1683,-27 1683,-63"/>
<text text-anchor="start" x="1647" y="-42" font-family="Times" font-size="10.00" fill="#000000">Add</text>
</g>
<!-- /outputs/149 -->
<g id="node7" class="node">
<title>/outputs/149</title>
<polygon fill="#e8e8e8" stroke="#000000" points="1773,-63 1719,-63 1719,-27 1773,-27 1773,-63"/>
<text text-anchor="start" x="1736" y="-42" font-family="Times" font-size="10.00" fill="#000000">Relu</text>
</g>
<!-- /outputs/148&#45;&gt;/outputs/149 -->
<g id="edge5" class="edge">
<title>/outputs/148&#45;&gt;/outputs/149</title>
<path fill="none" stroke="#000000" d="M1683.4,-45C1691.39,-45 1700.31,-45 1708.82,-45"/>
<polygon fill="#000000" stroke="#000000" points="1708.92,-48.5 1718.92,-45 1708.92,-41.5 1708.92,-48.5"/>
</g>
<!-- /outputs/155 -->
<g id="node8" class="node">
<title>/outputs/155</title>
<polygon fill="#e8e8e8" stroke="#000000" points="2191,-63 2137,-63 2137,-27 2191,-27 2191,-63"/>
<text text-anchor="start" x="2155" y="-42" font-family="Times" font-size="10.00" fill="#000000">Add</text>
</g>
<!-- /outputs/149&#45;&gt;/outputs/155 -->
<g id="edge6" class="edge">
<title>/outputs/149&#45;&gt;/outputs/155</title>
<path fill="none" stroke="#000000" d="M1773.23,-47.07C1784.26,-47.84 1797.25,-48.62 1809,-49 1938.71,-53.18 1971.29,-53.18 2101,-49 2109.35,-48.73 2118.33,-48.26 2126.79,-47.73"/>
<polygon fill="#000000" stroke="#000000" points="2127.03,-51.22 2136.77,-47.07 2126.56,-44.24 2127.03,-51.22"/>
</g>
<!-- 2260965038898897692 -->
<g id="node25" class="node">
<title>2260965038898897692</title>
<polygon fill="#e8e8e8" stroke="#000000" points="1952,-40 1809,-40 1809,-4 1952,-4 1952,-40"/>
<text text-anchor="start" x="1817.5" y="-19" font-family="Times" font-size="10.00" fill="#000000">Conv3x3 &gt; BatchNorm &gt; Relu</text>
</g>
<!-- /outputs/149&#45;&gt;2260965038898897692 -->
<g id="edge21" class="edge">
<title>/outputs/149&#45;&gt;2260965038898897692</title>
<path fill="none" stroke="#000000" d="M1773.18,-40.46C1780.82,-39.13 1789.6,-37.6 1798.78,-36.01"/>
<polygon fill="#000000" stroke="#000000" points="1799.59,-39.42 1808.85,-34.26 1798.4,-32.53 1799.59,-39.42"/>
</g>
<!-- /outputs/156 -->
<g id="node9" class="node">
<title>/outputs/156</title>
<polygon fill="#e8e8e8" stroke="#000000" points="2281,-63 2227,-63 2227,-27 2281,-27 2281,-63"/>
<text text-anchor="start" x="2244" y="-42" font-family="Times" font-size="10.00" fill="#000000">Relu</text>
</g>
<!-- /outputs/155&#45;&gt;/outputs/156 -->
<g id="edge7" class="edge">
<title>/outputs/155&#45;&gt;/outputs/156</title>
<path fill="none" stroke="#000000" d="M2191.4,-45C2199.39,-45 2208.31,-45 2216.82,-45"/>
<polygon fill="#000000" stroke="#000000" points="2216.92,-48.5 2226.92,-45 2216.92,-41.5 2216.92,-48.5"/>
</g>
<!-- 10593862906762558954 -->
<g id="node26" class="node">
<title>10593862906762558954</title>
<polygon fill="#e8e8e8" stroke="#000000" points="2460,-88 2317,-88 2317,-52 2460,-52 2460,-88"/>
<text text-anchor="start" x="2325.5" y="-67" font-family="Times" font-size="10.00" fill="#000000">Conv3x3 &gt; BatchNorm &gt; Relu</text>
</g>
<!-- /outputs/156&#45;&gt;10593862906762558954 -->
<g id="edge22" class="edge">
<title>/outputs/156&#45;&gt;10593862906762558954</title>
<path fill="none" stroke="#000000" d="M2281.18,-49.94C2288.82,-51.38 2297.6,-53.04 2306.78,-54.77"/>
<polygon fill="#000000" stroke="#000000" points="2306.37,-58.25 2316.85,-56.67 2307.67,-51.38 2306.37,-58.25"/>
</g>
<!-- 10296155664725359121 -->
<g id="node36" class="node">
<title>10296155664725359121</title>
<polygon fill="#e8e8e8" stroke="#000000" points="2609,-36 2496,-36 2496,0 2609,0 2609,-36"/>
<text text-anchor="start" x="2504.5" y="-15" font-family="Times" font-size="10.00" fill="#000000">Conv1x1 &gt; BatchNorm</text>
</g>
<!-- /outputs/156&#45;&gt;10296155664725359121 -->
<g id="edge38" class="edge">
<title>/outputs/156&#45;&gt;10296155664725359121</title>
<path fill="none" stroke="#000000" d="M2281.05,-42.63C2326.46,-38.49 2421.38,-29.85 2485.8,-23.98"/>
<polygon fill="#000000" stroke="#000000" points="2486.22,-27.46 2495.86,-23.07 2485.58,-20.49 2486.22,-27.46"/>
</g>
<!-- /outputs/164 -->
<g id="node10" class="node">
<title>/outputs/164</title>
<polygon fill="#e8e8e8" stroke="#000000" points="2699,-63 2645,-63 2645,-27 2699,-27 2699,-63"/>
<text text-anchor="start" x="2663" y="-42" font-family="Times" font-size="10.00" fill="#000000">Add</text>
</g>
<!-- /outputs/165 -->
<g id="node11" class="node">
<title>/outputs/165</title>
<polygon fill="#e8e8e8" stroke="#000000" points="2789,-63 2735,-63 2735,-27 2789,-27 2789,-63"/>
<text text-anchor="start" x="2752" y="-42" font-family="Times" font-size="10.00" fill="#000000">Relu</text>
</g>
<!-- /outputs/164&#45;&gt;/outputs/165 -->
<g id="edge8" class="edge">
<title>/outputs/164&#45;&gt;/outputs/165</title>
<path fill="none" stroke="#000000" d="M2699.4,-45C2707.39,-45 2716.31,-45 2724.82,-45"/>
<polygon fill="#000000" stroke="#000000" points="2724.92,-48.5 2734.92,-45 2724.92,-41.5 2724.92,-48.5"/>
</g>
<!-- /outputs/171 -->
<g id="node12" class="node">
<title>/outputs/171</title>
<polygon fill="#e8e8e8" stroke="#000000" points="3207,-63 3153,-63 3153,-27 3207,-27 3207,-63"/>
<text text-anchor="start" x="3171" y="-42" font-family="Times" font-size="10.00" fill="#000000">Add</text>
</g>
<!-- /outputs/165&#45;&gt;/outputs/171 -->
<g id="edge9" class="edge">
<title>/outputs/165&#45;&gt;/outputs/171</title>
<path fill="none" stroke="#000000" d="M2789.23,-47.07C2800.26,-47.84 2813.25,-48.62 2825,-49 2954.71,-53.18 2987.29,-53.18 3117,-49 3125.35,-48.73 3134.33,-48.26 3142.79,-47.73"/>
<polygon fill="#000000" stroke="#000000" points="3143.03,-51.22 3152.77,-47.07 3142.56,-44.24 3143.03,-51.22"/>
</g>
<!-- 6145192337883308973 -->
<g id="node27" class="node">
<title>6145192337883308973</title>
<polygon fill="#e8e8e8" stroke="#000000" points="2968,-40 2825,-40 2825,-4 2968,-4 2968,-40"/>
<text text-anchor="start" x="2833.5" y="-19" font-family="Times" font-size="10.00" fill="#000000">Conv3x3 &gt; BatchNorm &gt; Relu</text>
</g>
<!-- /outputs/165&#45;&gt;6145192337883308973 -->
<g id="edge23" class="edge">
<title>/outputs/165&#45;&gt;6145192337883308973</title>
<path fill="none" stroke="#000000" d="M2789.18,-40.46C2796.82,-39.13 2805.6,-37.6 2814.78,-36.01"/>
<polygon fill="#000000" stroke="#000000" points="2815.59,-39.42 2824.85,-34.26 2814.4,-32.53 2815.59,-39.42"/>
</g>
<!-- /outputs/172 -->
<g id="node13" class="node">
<title>/outputs/172</title>
<polygon fill="#e8e8e8" stroke="#000000" points="3297,-63 3243,-63 3243,-27 3297,-27 3297,-63"/>
<text text-anchor="start" x="3260" y="-42" font-family="Times" font-size="10.00" fill="#000000">Relu</text>
</g>
<!-- /outputs/171&#45;&gt;/outputs/172 -->
<g id="edge10" class="edge">
<title>/outputs/171&#45;&gt;/outputs/172</title>
<path fill="none" stroke="#000000" d="M3207.4,-45C3215.39,-45 3224.31,-45 3232.82,-45"/>
<polygon fill="#000000" stroke="#000000" points="3232.92,-48.5 3242.92,-45 3232.92,-41.5 3232.92,-48.5"/>
</g>
<!-- 9111876926227635338 -->
<g id="node28" class="node">
<title>9111876926227635338</title>
<polygon fill="#e8e8e8" stroke="#000000" points="3476,-88 3333,-88 3333,-52 3476,-52 3476,-88"/>
<text text-anchor="start" x="3341.5" y="-67" font-family="Times" font-size="10.00" fill="#000000">Conv3x3 &gt; BatchNorm &gt; Relu</text>
</g>
<!-- /outputs/172&#45;&gt;9111876926227635338 -->
<g id="edge24" class="edge">
<title>/outputs/172&#45;&gt;9111876926227635338</title>
<path fill="none" stroke="#000000" d="M3297.18,-49.94C3304.82,-51.38 3313.6,-53.04 3322.78,-54.77"/>
<polygon fill="#000000" stroke="#000000" points="3322.37,-58.25 3332.85,-56.67 3323.67,-51.38 3322.37,-58.25"/>
</g>
<!-- 5263153524892157994 -->
<g id="node39" class="node">
<title>5263153524892157994</title>
<polygon fill="#e8e8e8" stroke="#000000" points="3625,-36 3512,-36 3512,0 3625,0 3625,-36"/>
<text text-anchor="start" x="3520.5" y="-15" font-family="Times" font-size="10.00" fill="#000000">Conv1x1 &gt; BatchNorm</text>
</g>
<!-- /outputs/172&#45;&gt;5263153524892157994 -->
<g id="edge44" class="edge">
<title>/outputs/172&#45;&gt;5263153524892157994</title>
<path fill="none" stroke="#000000" d="M3297.05,-42.63C3342.46,-38.49 3437.38,-29.85 3501.8,-23.98"/>
<polygon fill="#000000" stroke="#000000" points="3502.22,-27.46 3511.86,-23.07 3501.58,-20.49 3502.22,-27.46"/>
</g>
<!-- /outputs/180 -->
<g id="node14" class="node">
<title>/outputs/180</title>
<polygon fill="#e8e8e8" stroke="#000000" points="3715,-63 3661,-63 3661,-27 3715,-27 3715,-63"/>
<text text-anchor="start" x="3679" y="-42" font-family="Times" font-size="10.00" fill="#000000">Add</text>
</g>
<!-- /outputs/181 -->
<g id="node15" class="node">
<title>/outputs/181</title>
<polygon fill="#e8e8e8" stroke="#000000" points="3805,-63 3751,-63 3751,-27 3805,-27 3805,-63"/>
<text text-anchor="start" x="3768" y="-42" font-family="Times" font-size="10.00" fill="#000000">Relu</text>
</g>
<!-- /outputs/180&#45;&gt;/outputs/181 -->
<g id="edge11" class="edge">
<title>/outputs/180&#45;&gt;/outputs/181</title>
<path fill="none" stroke="#000000" d="M3715.4,-45C3723.39,-45 3732.31,-45 3740.82,-45"/>
<polygon fill="#000000" stroke="#000000" points="3740.92,-48.5 3750.92,-45 3740.92,-41.5 3740.92,-48.5"/>
</g>
<!-- /outputs/187 -->
<g id="node16" class="node">
<title>/outputs/187</title>
<polygon fill="#e8e8e8" stroke="#000000" points="4223,-63 4169,-63 4169,-27 4223,-27 4223,-63"/>
<text text-anchor="start" x="4187" y="-42" font-family="Times" font-size="10.00" fill="#000000">Add</text>
</g>
<!-- /outputs/181&#45;&gt;/outputs/187 -->
<g id="edge12" class="edge">
<title>/outputs/181&#45;&gt;/outputs/187</title>
<path fill="none" stroke="#000000" d="M3805.23,-47.07C3816.26,-47.84 3829.25,-48.62 3841,-49 3970.71,-53.18 4003.29,-53.18 4133,-49 4141.35,-48.73 4150.33,-48.26 4158.79,-47.73"/>
<polygon fill="#000000" stroke="#000000" points="4159.03,-51.22 4168.77,-47.07 4158.56,-44.24 4159.03,-51.22"/>
</g>
<!-- 5931523282746410574 -->
<g id="node29" class="node">
<title>5931523282746410574</title>
<polygon fill="#e8e8e8" stroke="#000000" points="3984,-40 3841,-40 3841,-4 3984,-4 3984,-40"/>
<text text-anchor="start" x="3849.5" y="-19" font-family="Times" font-size="10.00" fill="#000000">Conv3x3 &gt; BatchNorm &gt; Relu</text>
</g>
<!-- /outputs/181&#45;&gt;5931523282746410574 -->
<g id="edge25" class="edge">
<title>/outputs/181&#45;&gt;5931523282746410574</title>
<path fill="none" stroke="#000000" d="M3805.18,-40.46C3812.82,-39.13 3821.6,-37.6 3830.78,-36.01"/>
<polygon fill="#000000" stroke="#000000" points="3831.59,-39.42 3840.85,-34.26 3830.4,-32.53 3831.59,-39.42"/>
</g>
<!-- /outputs/188 -->
<g id="node17" class="node">
<title>/outputs/188</title>
<polygon fill="#e8e8e8" stroke="#000000" points="4313,-63 4259,-63 4259,-27 4313,-27 4313,-63"/>
<text text-anchor="start" x="4276" y="-42" font-family="Times" font-size="10.00" fill="#000000">Relu</text>
</g>
<!-- /outputs/187&#45;&gt;/outputs/188 -->
<g id="edge13" class="edge">
<title>/outputs/187&#45;&gt;/outputs/188</title>
<path fill="none" stroke="#000000" d="M4223.4,-45C4231.39,-45 4240.31,-45 4248.82,-45"/>
<polygon fill="#000000" stroke="#000000" points="4248.92,-48.5 4258.92,-45 4248.92,-41.5 4248.92,-48.5"/>
</g>
<!-- /outputs/189 -->
<g id="node18" class="node">
<title>/outputs/189</title>
<polygon fill="#e8e8e8" stroke="#000000" points="4403,-63 4349,-63 4349,-27 4403,-27 4403,-63"/>
<text text-anchor="start" x="4368" y="-42" font-family="Times" font-size="10.00" fill="#000000">Pad</text>
</g>
<!-- /outputs/188&#45;&gt;/outputs/189 -->
<g id="edge14" class="edge">
<title>/outputs/188&#45;&gt;/outputs/189</title>
<path fill="none" stroke="#000000" d="M4313.4,-45C4321.39,-45 4330.31,-45 4338.82,-45"/>
<polygon fill="#000000" stroke="#000000" points="4338.92,-48.5 4348.92,-45 4338.92,-41.5 4338.92,-48.5"/>
</g>
<!-- /outputs/190 -->
<g id="node19" class="node">
<title>/outputs/190</title>
<polygon fill="#e8e8e8" stroke="#000000" points="4525,-63 4439,-63 4439,-27 4525,-27 4525,-63"/>
<text text-anchor="start" x="4447" y="-42" font-family="Times" font-size="10.00" fill="#000000">AveragePool7x7</text>
</g>
<!-- /outputs/189&#45;&gt;/outputs/190 -->
<g id="edge15" class="edge">
<title>/outputs/189&#45;&gt;/outputs/190</title>
<path fill="none" stroke="#000000" d="M4403.24,-45C4411.11,-45 4420.04,-45 4428.96,-45"/>
<polygon fill="#000000" stroke="#000000" points="4428.98,-48.5 4438.98,-45 4428.98,-41.5 4428.98,-48.5"/>
</g>
<!-- /outputs/191 -->
<g id="node20" class="node">
<title>/outputs/191</title>
<polygon fill="#e8e8e8" stroke="#000000" points="4615,-63 4561,-63 4561,-27 4615,-27 4615,-63"/>
<text text-anchor="start" x="4574" y="-42" font-family="Times" font-size="10.00" fill="#000000">Flatten</text>
</g>
<!-- /outputs/190&#45;&gt;/outputs/191 -->
<g id="edge16" class="edge">
<title>/outputs/190&#45;&gt;/outputs/191</title>
<path fill="none" stroke="#000000" d="M4525,-45C4533.48,-45 4542.34,-45 4550.61,-45"/>
<polygon fill="#000000" stroke="#000000" points="4550.7,-48.5 4560.7,-45 4550.7,-41.5 4550.7,-48.5"/>
</g>
<!-- 2060240836688567336 -->
<g id="node41" class="node">
<title>2060240836688567336</title>
<polygon fill="#e8e8e8" stroke="#000000" points="4724,-63 4651,-63 4651,-27 4724,-27 4724,-63"/>
<text text-anchor="start" x="4659.5" y="-42" font-family="Times" font-size="10.00" fill="#000000">Linear &gt; Relu</text>
</g>
<!-- /outputs/191&#45;&gt;2060240836688567336 -->
<g id="edge48" class="edge">
<title>/outputs/191&#45;&gt;2060240836688567336</title>
<path fill="none" stroke="#000000" d="M4615.13,-45C4622.99,-45 4631.87,-45 4640.62,-45"/>
<polygon fill="#000000" stroke="#000000" points="4640.77,-48.5 4650.77,-45 4640.77,-41.5 4640.77,-48.5"/>
</g>
<!-- 17397715859518263093 -->
<g id="node21" class="node">
<title>17397715859518263093</title>
<polygon fill="#e8e8e8" stroke="#000000" points="143,-63 0,-63 0,-27 143,-27 143,-63"/>
<text text-anchor="start" x="8.5" y="-42" font-family="Times" font-size="10.00" fill="#000000">Conv7x7 &gt; BatchNorm &gt; Relu</text>
</g>
<!-- 17397715859518263093&#45;&gt;/outputs/126 -->
<g id="edge17" class="edge">
<title>17397715859518263093&#45;&gt;/outputs/126</title>
<path fill="none" stroke="#000000" d="M143.16,-45C151.91,-45 160.64,-45 168.83,-45"/>
<polygon fill="#000000" stroke="#000000" points="168.86,-48.5 178.86,-45 168.86,-41.5 168.86,-48.5"/>
</g>
<!-- 10334271539657994301 -->
<g id="node30" class="node">
<title>10334271539657994301</title>
<polygon fill="#e8e8e8" stroke="#000000" points="577,-40 464,-40 464,-4 577,-4 577,-40"/>
<text text-anchor="start" x="472.5" y="-19" font-family="Times" font-size="10.00" fill="#000000">Conv3x3 &gt; BatchNorm</text>
</g>
<!-- 13323451925697643810&#45;&gt;10334271539657994301 -->
<g id="edge26" class="edge">
<title>13323451925697643810&#45;&gt;10334271539657994301</title>
<path fill="none" stroke="#000000" d="M428.08,-22C436.57,-22 445.21,-22 453.63,-22"/>
<polygon fill="#000000" stroke="#000000" points="453.76,-25.5 463.76,-22 453.76,-18.5 453.76,-25.5"/>
</g>
<!-- 12044234301323618057 -->
<g id="node31" class="node">
<title>12044234301323618057</title>
<polygon fill="#e8e8e8" stroke="#000000" points="1085,-40 972,-40 972,-4 1085,-4 1085,-40"/>
<text text-anchor="start" x="980.5" y="-19" font-family="Times" font-size="10.00" fill="#000000">Conv3x3 &gt; BatchNorm</text>
</g>
<!-- 3183278180704118849&#45;&gt;12044234301323618057 -->
<g id="edge28" class="edge">
<title>3183278180704118849&#45;&gt;12044234301323618057</title>
<path fill="none" stroke="#000000" d="M936.08,-22C944.57,-22 953.21,-22 961.63,-22"/>
<polygon fill="#000000" stroke="#000000" points="961.76,-25.5 971.76,-22 961.76,-18.5 961.76,-25.5"/>
</g>
<!-- 2783963397783800963 -->
<g id="node32" class="node">
<title>2783963397783800963</title>
<polygon fill="#e8e8e8" stroke="#000000" points="1593,-90 1480,-90 1480,-54 1593,-54 1593,-90"/>
<text text-anchor="start" x="1488.5" y="-69" font-family="Times" font-size="10.00" fill="#000000">Conv3x3 &gt; BatchNorm</text>
</g>
<!-- 47164374850255346&#45;&gt;2783963397783800963 -->
<g id="edge30" class="edge">
<title>47164374850255346&#45;&gt;2783963397783800963</title>
<path fill="none" stroke="#000000" d="M1444.08,-70.87C1452.57,-70.98 1461.21,-71.08 1469.63,-71.19"/>
<polygon fill="#000000" stroke="#000000" points="1469.71,-74.69 1479.76,-71.31 1469.8,-67.69 1469.71,-74.69"/>
</g>
<!-- 5638025318326828076 -->
<g id="node34" class="node">
<title>5638025318326828076</title>
<polygon fill="#e8e8e8" stroke="#000000" points="2101,-40 1988,-40 1988,-4 2101,-4 2101,-40"/>
<text text-anchor="start" x="1996.5" y="-19" font-family="Times" font-size="10.00" fill="#000000">Conv3x3 &gt; BatchNorm</text>
</g>
<!-- 2260965038898897692&#45;&gt;5638025318326828076 -->
<g id="edge34" class="edge">
<title>2260965038898897692&#45;&gt;5638025318326828076</title>
<path fill="none" stroke="#000000" d="M1952.08,-22C1960.57,-22 1969.21,-22 1977.63,-22"/>
<polygon fill="#000000" stroke="#000000" points="1977.76,-25.5 1987.76,-22 1977.76,-18.5 1977.76,-25.5"/>
</g>
<!-- 15746288996340649570 -->
<g id="node35" class="node">
<title>15746288996340649570</title>
<polygon fill="#e8e8e8" stroke="#000000" points="2609,-90 2496,-90 2496,-54 2609,-54 2609,-90"/>
<text text-anchor="start" x="2504.5" y="-69" font-family="Times" font-size="10.00" fill="#000000">Conv3x3 &gt; BatchNorm</text>
</g>
<!-- 10593862906762558954&#45;&gt;15746288996340649570 -->
<g id="edge36" class="edge">
<title>10593862906762558954&#45;&gt;15746288996340649570</title>
<path fill="none" stroke="#000000" d="M2460.08,-70.87C2468.57,-70.98 2477.21,-71.08 2485.63,-71.19"/>
<polygon fill="#000000" stroke="#000000" points="2485.71,-74.69 2495.76,-71.31 2485.8,-67.69 2485.71,-74.69"/>
</g>
<!-- 3505228375106957400 -->
<g id="node37" class="node">
<title>3505228375106957400</title>
<polygon fill="#e8e8e8" stroke="#000000" points="3117,-40 3004,-40 3004,-4 3117,-4 3117,-40"/>
<text text-anchor="start" x="3012.5" y="-19" font-family="Times" font-size="10.00" fill="#000000">Conv3x3 &gt; BatchNorm</text>
</g>
<!-- 6145192337883308973&#45;&gt;3505228375106957400 -->
<g id="edge40" class="edge">
<title>6145192337883308973&#45;&gt;3505228375106957400</title>
<path fill="none" stroke="#000000" d="M2968.08,-22C2976.57,-22 2985.21,-22 2993.63,-22"/>
<polygon fill="#000000" stroke="#000000" points="2993.76,-25.5 3003.76,-22 2993.76,-18.5 2993.76,-25.5"/>
</g>
<!-- 9329114177393835199 -->
<g id="node38" class="node">
<title>9329114177393835199</title>
<polygon fill="#e8e8e8" stroke="#000000" points="3625,-90 3512,-90 3512,-54 3625,-54 3625,-90"/>
<text text-anchor="start" x="3520.5" y="-69" font-family="Times" font-size="10.00" fill="#000000">Conv3x3 &gt; BatchNorm</text>
</g>
<!-- 9111876926227635338&#45;&gt;9329114177393835199 -->
<g id="edge42" class="edge">
<title>9111876926227635338&#45;&gt;9329114177393835199</title>
<path fill="none" stroke="#000000" d="M3476.08,-70.87C3484.57,-70.98 3493.21,-71.08 3501.63,-71.19"/>
<polygon fill="#000000" stroke="#000000" points="3501.71,-74.69 3511.76,-71.31 3501.8,-67.69 3501.71,-74.69"/>
</g>
<!-- 17137180352926176407 -->
<g id="node40" class="node">
<title>17137180352926176407</title>
<polygon fill="#e8e8e8" stroke="#000000" points="4133,-40 4020,-40 4020,-4 4133,-4 4133,-40"/>
<text text-anchor="start" x="4028.5" y="-19" font-family="Times" font-size="10.00" fill="#000000">Conv3x3 &gt; BatchNorm</text>
</g>
<!-- 5931523282746410574&#45;&gt;17137180352926176407 -->
<g id="edge46" class="edge">
<title>5931523282746410574&#45;&gt;17137180352926176407</title>
<path fill="none" stroke="#000000" d="M3984.08,-22C3992.57,-22 4001.21,-22 4009.63,-22"/>
<polygon fill="#000000" stroke="#000000" points="4009.76,-25.5 4019.76,-22 4009.76,-18.5 4009.76,-25.5"/>
</g>
<!-- 10334271539657994301&#45;&gt;/outputs/132 -->
<g id="edge27" class="edge">
<title>10334271539657994301&#45;&gt;/outputs/132</title>
<path fill="none" stroke="#000000" d="M577.15,-32.89C585.91,-34.61 594.76,-36.34 602.92,-37.94"/>
<polygon fill="#000000" stroke="#000000" points="602.35,-41.39 612.83,-39.88 603.69,-34.52 602.35,-41.39"/>
</g>
<!-- 12044234301323618057&#45;&gt;/outputs/139 -->
<g id="edge29" class="edge">
<title>12044234301323618057&#45;&gt;/outputs/139</title>
<path fill="none" stroke="#000000" d="M1085.15,-32.89C1093.91,-34.61 1102.76,-36.34 1110.92,-37.94"/>
<polygon fill="#000000" stroke="#000000" points="1110.35,-41.39 1120.83,-39.88 1111.69,-34.52 1110.35,-41.39"/>
</g>
<!-- 2783963397783800963&#45;&gt;/outputs/148 -->
<g id="edge31" class="edge">
<title>2783963397783800963&#45;&gt;/outputs/148</title>
<path fill="none" stroke="#000000" d="M1593.15,-59.21C1601.91,-57.2 1610.76,-55.17 1618.92,-53.29"/>
<polygon fill="#000000" stroke="#000000" points="1619.87,-56.66 1628.83,-51.01 1618.3,-49.84 1619.87,-56.66"/>
</g>
<!-- 15958836582840124980&#45;&gt;/outputs/148 -->
<g id="edge33" class="edge">
<title>15958836582840124980&#45;&gt;/outputs/148</title>
<path fill="none" stroke="#000000" d="M1593.15,-30.79C1601.91,-32.8 1610.76,-34.83 1618.92,-36.71"/>
<polygon fill="#000000" stroke="#000000" points="1618.3,-40.16 1628.83,-38.99 1619.87,-33.34 1618.3,-40.16"/>
</g>
<!-- 5638025318326828076&#45;&gt;/outputs/155 -->
<g id="edge35" class="edge">
<title>5638025318326828076&#45;&gt;/outputs/155</title>
<path fill="none" stroke="#000000" d="M2101.15,-32.89C2109.91,-34.61 2118.76,-36.34 2126.92,-37.94"/>
<polygon fill="#000000" stroke="#000000" points="2126.35,-41.39 2136.83,-39.88 2127.69,-34.52 2126.35,-41.39"/>
</g>
<!-- 15746288996340649570&#45;&gt;/outputs/164 -->
<g id="edge37" class="edge">
<title>15746288996340649570&#45;&gt;/outputs/164</title>
<path fill="none" stroke="#000000" d="M2609.15,-59.21C2617.91,-57.2 2626.76,-55.17 2634.92,-53.29"/>
<polygon fill="#000000" stroke="#000000" points="2635.87,-56.66 2644.83,-51.01 2634.3,-49.84 2635.87,-56.66"/>
</g>
<!-- 10296155664725359121&#45;&gt;/outputs/164 -->
<g id="edge39" class="edge">
<title>10296155664725359121&#45;&gt;/outputs/164</title>
<path fill="none" stroke="#000000" d="M2609.15,-30.79C2617.91,-32.8 2626.76,-34.83 2634.92,-36.71"/>
<polygon fill="#000000" stroke="#000000" points="2634.3,-40.16 2644.83,-38.99 2635.87,-33.34 2634.3,-40.16"/>
</g>
<!-- 3505228375106957400&#45;&gt;/outputs/171 -->
<g id="edge41" class="edge">
<title>3505228375106957400&#45;&gt;/outputs/171</title>
<path fill="none" stroke="#000000" d="M3117.15,-32.89C3125.91,-34.61 3134.76,-36.34 3142.92,-37.94"/>
<polygon fill="#000000" stroke="#000000" points="3142.35,-41.39 3152.83,-39.88 3143.69,-34.52 3142.35,-41.39"/>
</g>
<!-- 9329114177393835199&#45;&gt;/outputs/180 -->
<g id="edge43" class="edge">
<title>9329114177393835199&#45;&gt;/outputs/180</title>
<path fill="none" stroke="#000000" d="M3625.15,-59.21C3633.91,-57.2 3642.76,-55.17 3650.92,-53.29"/>
<polygon fill="#000000" stroke="#000000" points="3651.87,-56.66 3660.83,-51.01 3650.3,-49.84 3651.87,-56.66"/>
</g>
<!-- 5263153524892157994&#45;&gt;/outputs/180 -->
<g id="edge45" class="edge">
<title>5263153524892157994&#45;&gt;/outputs/180</title>
<path fill="none" stroke="#000000" d="M3625.15,-30.79C3633.91,-32.8 3642.76,-34.83 3650.92,-36.71"/>
<polygon fill="#000000" stroke="#000000" points="3650.3,-40.16 3660.83,-38.99 3651.87,-33.34 3650.3,-40.16"/>
</g>
<!-- 17137180352926176407&#45;&gt;/outputs/187 -->
<g id="edge47" class="edge">
<title>17137180352926176407&#45;&gt;/outputs/187</title>
<path fill="none" stroke="#000000" d="M4133.15,-32.89C4141.91,-34.61 4150.76,-36.34 4158.92,-37.94"/>
<polygon fill="#000000" stroke="#000000" points="4158.35,-41.39 4168.83,-39.88 4159.69,-34.52 4158.35,-41.39"/>
</g>
</g>
</svg>
